<?xml version="1.0" standalone="no"?>
<!DOCTYPE svg PUBLIC "-//W3C//DTD SVG 20010904//EN"
 "http://www.w3.org/TR/2001/REC-SVG-20010904/DTD/svg10.dtd">
<svg version="1.0" xmlns="http://www.w3.org/2000/svg"
 width="304.000000pt" height="304.000000pt" viewBox="0 0 304.000000 304.000000"
 preserveAspectRatio="xMidYMid meet">
<metadata>
Created by potrace 1.11, written by Peter Selinger 2001-2013
</metadata>
<g transform="translate(0.000000,304.000000) scale(0.100000,-0.100000)"
fill="#000000" stroke="none">
<path d="M0 1520 l0 -1520 1520 0 1520 0 0 1520 0 1520 -1520 0 -1520 0 0
-1520z m1110 709 c6 -10 10 -43 10 -73 l0 -56 175 0 175 0 0 58 c0 71 15 95
55 90 30 -3 30 -3 33 -75 l3 -73 179 0 180 0 0 64 c0 56 3 67 22 80 19 13 25
14 43 2 16 -11 21 -26 23 -79 l3 -66 52 -11 c89 -18 143 -40 207 -81 l62 -40
49 46 c53 50 64 53 91 28 27 -24 23 -39 -27 -92 l-46 -49 40 -62 c41 -64 63
-118 82 -207 l11 -53 62 0 c66 0 86 -11 86 -45 0 -34 -20 -45 -86 -45 l-63 0
-11 -57 c-17 -79 -44 -146 -87 -210 l-35 -53 46 -50 c25 -27 46 -54 46 -60 0
-20 -39 -50 -57 -43 -10 3 -37 24 -60 46 l-43 41 -28 -21 c-61 -45 -166 -88
-264 -108 -27 -5 -28 -8 -28 -68 0 -68 -10 -87 -47 -87 -30 0 -43 28 -43 94
l0 56 -180 0 -180 0 0 -63 c0 -68 -10 -87 -47 -87 -29 0 -43 33 -43 101 l0 49
-175 0 -175 0 0 -56 c0 -66 -13 -94 -43 -94 -36 0 -47 19 -47 86 0 64 -7 74
-50 74 -39 0 -162 50 -219 89 l-60 41 -37 -44 c-42 -51 -64 -60 -93 -39 -31
21 -26 38 25 93 l46 49 -30 43 c-45 66 -62 103 -81 181 l-19 72 -66 3 c-57 3
-68 6 -82 27 -12 18 -13 28 -4 44 9 18 20 21 79 21 l68 0 7 48 c10 75 44 166
87 233 l40 62 -45 46 c-50 51 -55 65 -29 93 24 27 39 23 92 -27 l49 -46 62 40
c60 39 149 73 223 86 l37 6 0 64 c0 54 3 66 21 79 24 17 45 12 59 -15z"/>
<path d="M1180 1749 c-57 -23 -117 -111 -106 -155 5 -18 13 -24 35 -24 24 0
34 8 53 42 46 84 116 85 160 2 20 -39 27 -44 53 -42 25 3 30 8 33 33 4 40 -40
107 -88 134 -40 22 -98 26 -140 10z"/>
<path d="M1735 1741 c-91 -55 -128 -162 -58 -169 28 -3 34 1 46 31 16 37 60
77 87 77 27 0 71 -40 87 -77 12 -30 18 -34 46 -31 30 3 32 5 31 40 -1 43 -40
100 -88 129 -40 25 -111 25 -151 0z"/>
<path d="M2145 1705 c-17 -16 -25 -35 -25 -60 0 -25 8 -44 25 -60 16 -17 35
-25 60 -25 25 0 44 8 60 25 17 16 25 35 25 60 0 25 -8 44 -25 60 -16 17 -35
25 -60 25 -25 0 -44 -8 -60 -25z"/>
<path d="M848 1504 c-85 -46 -51 -184 45 -184 54 0 97 41 97 92 0 50 -13 74
-50 93 -36 19 -57 18 -92 -1z"/>
<path d="M1212 1478 c-20 -20 -13 -43 26 -80 77 -74 174 -103 322 -96 81 4
108 10 161 35 81 38 131 86 127 122 -4 38 -51 42 -84 6 -100 -108 -373 -109
-473 -1 -26 28 -59 34 -79 14z"/>
<path d="M2046 1404 c-20 -20 -20 -27 3 -55 16 -21 22 -22 45 -11 17 8 26 19
26 35 0 44 -43 62 -74 31z"/>
</g>
</svg>
