<svg xmlns="http://www.w3.org/2000/svg" viewBox="0 0 663.4 116.26"><defs><style>.cls-1{isolation:isolate;}.cls-2{fill:#495464;}.cls-3{fill:#f4f4f2;}.cls-4,.cls-5{fill:#bbbfca;}.cls-5{opacity:0.36;}.cls-6{fill:none;stroke:#495464;stroke-linecap:round;stroke-miterlimit:10;stroke-width:7px;}</style></defs><g id="Layer_2" data-name="Layer 2"><g id="Layer_1-2" data-name="Layer 1"><g class="cls-1"><path class="cls-2" d="M271.59,72.16H260.2V35l-20,35.25a5,5,0,0,1-2.07,2,6,6,0,0,1-2.84.69,5.71,5.71,0,0,1-2.76-.69,5,5,0,0,1-2-2L210.36,35V72.16h-11.3V14.66a5.66,5.66,0,0,1,4.17-5.52A6.26,6.26,0,0,1,205.05,9a5.84,5.84,0,0,1,1.76.39,5.5,5.5,0,0,1,1.55.91,5.58,5.58,0,0,1,1.17,1.42l25.73,44.71L261,11.71a5.55,5.55,0,0,1,2.76-2.35,5.89,5.89,0,0,1,3.67-.22,5.68,5.68,0,0,1,3,2,5.53,5.53,0,0,1,1.18,3.48Z"/><path class="cls-2" d="M296.1,72.16H284.8V9.84h11.3Z"/><path class="cls-2" d="M365.11,72.16H324.34a17.47,17.47,0,0,1-6.93-1.53,16.54,16.54,0,0,1-3.37-2,13.5,13.5,0,0,1-2.84-3,14.8,14.8,0,0,1-2-4.09,17.36,17.36,0,0,1-.74-5.24V25.7a16.6,16.6,0,0,1,.37-3.37A17.58,17.58,0,0,1,310,18.77a15.36,15.36,0,0,1,2.05-3.37,13.93,13.93,0,0,1,3-2.85,14.88,14.88,0,0,1,4.06-2,16.77,16.77,0,0,1,5.21-.74h40.77v11.3H324.34A4.62,4.62,0,0,0,321,22.31a4.72,4.72,0,0,0-1.17,3.48v30.5a4.17,4.17,0,0,0,4.56,4.57h40.77Z"/><path class="cls-2" d="M438.07,30.78a22.89,22.89,0,0,1-1,6.91,19.11,19.11,0,0,1-2.58,5.37,18.3,18.3,0,0,1-3.76,4,23,23,0,0,1-4.45,2.71,21.56,21.56,0,0,1-4.7,1.55,22.4,22.4,0,0,1-4.45.47l23.6,20.39H423.3L399.74,51.77h-8.13V40.48h25.56a13.19,13.19,0,0,0,3.89-.9,9.62,9.62,0,0,0,3-1.93,8.44,8.44,0,0,0,2-2.93,10.53,10.53,0,0,0,.69-3.94V23.66a3.51,3.51,0,0,0-.24-1.46,1.75,1.75,0,0,0-.61-.74,1.71,1.71,0,0,0-.78-.28,6.92,6.92,0,0,0-.76,0H387.1v51H375.8V15.53a5.71,5.71,0,0,1,1.63-4,5.26,5.26,0,0,1,1.8-1.22,5.83,5.83,0,0,1,2.26-.43h42.89a13.54,13.54,0,0,1,6.39,1.37A12.94,12.94,0,0,1,435,14.64a13.33,13.33,0,0,1,2.34,4.45,15.63,15.63,0,0,1,.72,4.48Z"/><path class="cls-2" d="M514.82,47a27.42,27.42,0,0,1-2,10.47,24.88,24.88,0,0,1-5.43,8.26,24.54,24.54,0,0,1-8.24,5.41A27.21,27.21,0,0,1,488.83,73h-15.3a27.35,27.35,0,0,1-10.38-1.93,24.53,24.53,0,0,1-8.26-5.41,24.93,24.93,0,0,1-5.45-8.26,27,27,0,0,1-2-10.47V35a27.16,27.16,0,0,1,2-10.45,24.44,24.44,0,0,1,13.71-13.66,27,27,0,0,1,10.38-2h15.3a26.85,26.85,0,0,1,10.36,2,24.85,24.85,0,0,1,8.24,5.41,24.54,24.54,0,0,1,5.43,8.25,27.53,27.53,0,0,1,2,10.45ZM503.52,35A16.47,16.47,0,0,0,502.45,29a13.12,13.12,0,0,0-7.65-7.65,16.21,16.21,0,0,0-6-1.06h-15.3a16.37,16.37,0,0,0-6,1.06,13.68,13.68,0,0,0-4.67,3,13.31,13.31,0,0,0-3,4.65A16.47,16.47,0,0,0,458.76,35V47A16.47,16.47,0,0,0,459.82,53a13.31,13.31,0,0,0,3,4.65,13.68,13.68,0,0,0,4.67,3,16.37,16.37,0,0,0,6,1.07h15.21a16.37,16.37,0,0,0,6-1.07,13.59,13.59,0,0,0,4.67-3,13.31,13.31,0,0,0,3-4.65A16.47,16.47,0,0,0,503.52,47Z"/><path class="cls-2" d="M588.17,58.47a15.51,15.51,0,0,1-.72,4.47,13.1,13.1,0,0,1-2.34,4.44,13.28,13.28,0,0,1-4.24,3.41,13.66,13.66,0,0,1-6.39,1.37H531.59a5.84,5.84,0,0,1-2.26-.44,5.6,5.6,0,0,1-1.8-1.19,5.51,5.51,0,0,1-1.2-1.81,5.8,5.8,0,0,1-.43-2.26V15.53a5.71,5.71,0,0,1,1.63-4,5.36,5.36,0,0,1,1.8-1.22,5.83,5.83,0,0,1,2.26-.43H569.4a14.91,14.91,0,0,1,4.47.74A13.55,13.55,0,0,1,578.33,13a12.92,12.92,0,0,1,3.43,4.23,13.66,13.66,0,0,1,1.37,6.39V25.7a23.12,23.12,0,0,1-1,6.45,21.2,21.2,0,0,1-3.22,6.54,20.4,20.4,0,0,1,3.59,2.83,18.16,18.16,0,0,1,2.93,3.82,20.27,20.27,0,0,1,2,4.91,22.87,22.87,0,0,1,.74,6Zm-11.3-2.18a10.8,10.8,0,0,0-.69-4,8.81,8.81,0,0,0-2-3,8.48,8.48,0,0,0-3-1.94,11.23,11.23,0,0,0-4-.67H541.72V35.3H562.1a11.26,11.26,0,0,0,4-.67,8.3,8.3,0,0,0,5-5,11.08,11.08,0,0,0,.67-4V23.57q0-2.43-2.34-2.43H537.2V60.86h37.28c.21,0,.45,0,.74,0a1.61,1.61,0,0,0,1.39-1,3.12,3.12,0,0,0,.26-1.43Z"/><path class="cls-2" d="M663.4,47a27.42,27.42,0,0,1-2,10.47,24.35,24.35,0,0,1-13.67,13.67A27.21,27.21,0,0,1,637.41,73h-15.3a27.35,27.35,0,0,1-10.38-1.93,24.53,24.53,0,0,1-8.26-5.41A25.11,25.11,0,0,1,598,57.42,27,27,0,0,1,596,47V35a27.16,27.16,0,0,1,2-10.45,24.49,24.49,0,0,1,13.72-13.66,27,27,0,0,1,10.38-2h15.3a26.85,26.85,0,0,1,10.36,2A25,25,0,0,1,656,16.34a24.54,24.54,0,0,1,5.43,8.25,27.53,27.53,0,0,1,2,10.45ZM652.1,35A16.47,16.47,0,0,0,651,29a13.12,13.12,0,0,0-7.65-7.65,16.21,16.21,0,0,0-6-1.06h-15.3a16.37,16.37,0,0,0-6,1.06,13.59,13.59,0,0,0-4.67,3,13.31,13.31,0,0,0-3,4.65A16.47,16.47,0,0,0,607.34,35V47A16.47,16.47,0,0,0,608.4,53a13.31,13.31,0,0,0,3,4.65,13.59,13.59,0,0,0,4.67,3,16.37,16.37,0,0,0,6,1.07h15.21a16.37,16.37,0,0,0,6-1.07,13.59,13.59,0,0,0,4.67-3A13.18,13.18,0,0,0,651,53,16.47,16.47,0,0,0,652.1,47Z"/></g><g class="cls-1"><path class="cls-2" d="M208.05,90.58a9.35,9.35,0,0,1,4.61,1.14A8.37,8.37,0,0,1,215.93,95a9.65,9.65,0,0,1,1.21,4.9,10.35,10.35,0,0,1-1.19,5,8.66,8.66,0,0,1-3.29,3.42,9.57,9.57,0,0,1-9.11.13,8.42,8.42,0,0,1-3.34-3.23,10.86,10.86,0,0,1-.07-10.06,8.73,8.73,0,0,1,3.29-3.34A9.16,9.16,0,0,1,208.05,90.58Zm-.13,3a5.9,5.9,0,0,0-2.75.66,5,5,0,0,0-2.08,2,7,7,0,0,0-.8,3.5,7.49,7.49,0,0,0,.77,3.47,5.6,5.6,0,0,0,2.11,2.3,5.68,5.68,0,0,0,3,.81,5.81,5.81,0,0,0,2.73-.68,5,5,0,0,0,2.09-2.11,7.21,7.21,0,0,0,.81-3.58,6.88,6.88,0,0,0-.87-3.62,5.43,5.43,0,0,0-2.22-2.12A6.22,6.22,0,0,0,207.92,93.63Z"/><path class="cls-2" d="M222.44,96.38l.37.84a7.82,7.82,0,0,1,3.82-1,6.68,6.68,0,0,1,2.81.64A5.47,5.47,0,0,1,231.81,99a7.17,7.17,0,0,1,.95,3.9,6.77,6.77,0,0,1-1.72,4.91,6.42,6.42,0,0,1-4.85,1.8,5.4,5.4,0,0,1-1.39-.17,10.41,10.41,0,0,1-1.39-.5v7.27h-3.22V96.38Zm3.32,2.35a5.8,5.8,0,0,0-2.32.47v7.21a4.37,4.37,0,0,0,5-.32,3.94,3.94,0,0,0,1.06-3.07Q229.48,98.73,225.76,98.73Z"/><path class="cls-2" d="M235.58,93.6a2.05,2.05,0,0,1,0-2.9,2.05,2.05,0,0,1,2.9,2.9,2.05,2.05,0,0,1-2.9,0Zm-.17,15.66h3.22V96.38h-3.22Z"/><path class="cls-2" d="M244.13,96.38l.4.94A10.12,10.12,0,0,1,249,96.21a4.56,4.56,0,0,1,3.07.91,4,4,0,0,1,1.3,2.11,11.88,11.88,0,0,1,.29,2.72v7.31h-3.19v-7.72a3.31,3.31,0,0,0-.5-1.81,2,2,0,0,0-1.81-.8,9.75,9.75,0,0,0-3.12.7v9.63h-3.18V96.38Z"/><path class="cls-2" d="M257,93.6a2.05,2.05,0,0,1,0-2.9,2.05,2.05,0,0,1,2.9,2.9,2.05,2.05,0,0,1-2.9,0Zm-.17,15.66h3.22V96.38h-3.22Z"/><path class="cls-2" d="M269.3,109.56a6.87,6.87,0,0,1-3.47-.86,6,6,0,0,1-2.31-2.36,7.09,7.09,0,0,1-.82-3.45,6.21,6.21,0,0,1,6.64-6.71A6.46,6.46,0,0,1,274.15,98a6.63,6.63,0,0,1,1.79,4.86,7.17,7.17,0,0,1-.82,3.49,5.94,5.94,0,0,1-2.33,2.36A7,7,0,0,1,269.3,109.56Zm0-10.87A3,3,0,0,0,267,99.8a4.62,4.62,0,0,0-1,3.09,4.49,4.49,0,0,0,.94,3A3,3,0,0,0,269.3,107a3,3,0,0,0,2.4-1.07,4.54,4.54,0,0,0,.92-3,4.61,4.61,0,0,0-.95-3.11A3.06,3.06,0,0,0,269.3,98.69Z"/><path class="cls-2" d="M280.8,96.38l.41.94a10.08,10.08,0,0,1,4.45-1.11,4.52,4.52,0,0,1,3.07.91A4,4,0,0,1,290,99.23a11.91,11.91,0,0,1,.28,2.72v7.31h-3.18v-7.72a3.4,3.4,0,0,0-.5-1.81,2,2,0,0,0-1.81-.8,9.64,9.64,0,0,0-3.12.7v9.63h-3.19V96.38Z"/><path class="cls-2" d="M298.24,96.18c2.16,0,3.68.45,4.54,1.34a5.3,5.3,0,0,1,1.29,3.82v7.92h-2.55l-.37-.91a5.84,5.84,0,0,1-3.75,1.21,4.86,4.86,0,0,1-3.32-1.09,3.84,3.84,0,0,1,.15-5.78,6.36,6.36,0,0,1,4-1.08h2.52a3.44,3.44,0,0,0-.61-2.38,3.26,3.26,0,0,0-2.38-.64,9.5,9.5,0,0,0-3.28.67l-.51-2.21A14.32,14.32,0,0,1,298.24,96.18Zm2.61,10.23v-2.75l-2.28.23c-1.68,0-2.51.53-2.51,1.58a1.48,1.48,0,0,0,.57,1.23,2.53,2.53,0,0,0,1.57.44,5.3,5.3,0,0,0,1.14-.1,3.41,3.41,0,0,0,.91-.32Z"/><path class="cls-2" d="M315.8,106.54l.44,2.28-2,.54a7,7,0,0,1-1.62.2c-1.86,0-3.09-.39-3.71-1.18a5.15,5.15,0,0,1-.92-3.25V98.9h-2.14V96.38H308V92.69h3.22v3.69h4.46V98.9h-4.46v6.16c0,1.26.7,1.88,2.11,1.88A9.88,9.88,0,0,0,315.8,106.54Z"/><path class="cls-2" d="M323.61,96.18A5.63,5.63,0,0,1,328.09,98a7.26,7.26,0,0,1,1.56,4.92v1.24H320.9a2.79,2.79,0,0,0,1.14,2.28,5.38,5.38,0,0,0,2.85.63,14.55,14.55,0,0,0,3.55-.4l.57,2.18a13.65,13.65,0,0,1-4.56.77,6.63,6.63,0,0,1-5.06-1.84,6.79,6.79,0,0,1-1.74-4.86,7.32,7.32,0,0,1,.83-3.54,6.09,6.09,0,0,1,2.2-2.35A5.54,5.54,0,0,1,323.61,96.18Zm.07,2.51a2.52,2.52,0,0,0-1.83.84,3.51,3.51,0,0,0-.89,2.35h5.5a3.27,3.27,0,0,0-.77-2.36A2.62,2.62,0,0,0,323.68,98.69Z"/><path class="cls-2" d="M341,90.82h3.21v18.44h-2.31l-.23-.71a6.76,6.76,0,0,1-3.46,1,6.44,6.44,0,0,1-4.81-1.81,6.75,6.75,0,0,1-1.76-4.9,6.84,6.84,0,0,1,1-3.82A5.87,5.87,0,0,1,335,96.85a6.74,6.74,0,0,1,2.89-.67,7.54,7.54,0,0,1,3.05.54Zm-2.32,7.87c-2.48,0-3.72,1.45-3.72,4.33a3.91,3.91,0,0,0,6,3.39V99.13A5.82,5.82,0,0,0,338.63,98.69Z"/><path class="cls-2" d="M355.43,90.82h4.39l5,10.09,5.09-10.09h4.16v18.44h-3.25V95.34l-4.66,9.19h-2.82l-4.63-9.19v13.92h-3.28Z"/><path class="cls-2" d="M378,93.6a2.05,2.05,0,0,1,0-2.9,2.05,2.05,0,0,1,2.9,2.9,2.05,2.05,0,0,1-2.9,0Zm-.17,15.66H381V96.38h-3.22Z"/><path class="cls-2" d="M387,102.89a4.36,4.36,0,0,0,1,3,3.66,3.66,0,0,0,2.85,1.15,6.35,6.35,0,0,0,1.6-.18c.45-.12,1.09-.32,1.89-.59l.91,2.08a10.46,10.46,0,0,1-2.17.91,10.13,10.13,0,0,1-2.76.33,6.53,6.53,0,0,1-4.85-1.84,6.68,6.68,0,0,1,4.85-11.57,10,10,0,0,1,2.63.3,14.39,14.39,0,0,1,2.3.87l-.91,2.12c-.8-.27-1.44-.47-1.89-.59a6.32,6.32,0,0,0-1.6-.19,3.67,3.67,0,0,0-2.9,1.14A4.5,4.5,0,0,0,387,102.89Z"/><path class="cls-2" d="M399.82,96.38l.4.94A6.87,6.87,0,0,1,404,96.18a5.69,5.69,0,0,1,2.34.5l-.63,2.92-.14,0a5.41,5.41,0,0,0-2.75-.67,6.25,6.25,0,0,0-2.11.37v9.93h-3.18V96.38Z"/><path class="cls-2" d="M414.26,109.56a6.87,6.87,0,0,1-3.47-.86,6,6,0,0,1-2.31-2.36,7.09,7.09,0,0,1-.82-3.45,6.21,6.21,0,0,1,6.64-6.71A6.46,6.46,0,0,1,419.11,98a6.63,6.63,0,0,1,1.79,4.86,7.17,7.17,0,0,1-.82,3.49,5.94,5.94,0,0,1-2.33,2.36A7,7,0,0,1,414.26,109.56Zm0-10.87a3,3,0,0,0-2.33,1.11,4.62,4.62,0,0,0-.95,3.09,4.49,4.49,0,0,0,.94,3,3,3,0,0,0,2.34,1.09,3,3,0,0,0,2.4-1.07,5.54,5.54,0,0,0,0-6.16A3.06,3.06,0,0,0,414.26,98.69Z"/><path class="cls-2" d="M431.4,90.82h4.39l5,10.09,5.1-10.09H450v18.44h-3.25V95.34l-4.66,9.19h-2.81l-4.63-9.19v13.92H431.4Z"/><path class="cls-2" d="M458.52,96.18c2.16,0,3.68.45,4.54,1.34a5.3,5.3,0,0,1,1.29,3.82v7.92H461.8l-.37-.91a5.82,5.82,0,0,1-3.75,1.21,4.88,4.88,0,0,1-3.32-1.09,3.84,3.84,0,0,1,.15-5.78,6.36,6.36,0,0,1,4-1.08H461a3.44,3.44,0,0,0-.61-2.38,3.26,3.26,0,0,0-2.38-.64,9.5,9.5,0,0,0-3.28.67l-.5-2.21A14.21,14.21,0,0,1,458.52,96.18Zm2.61,10.23v-2.75l-2.28.23c-1.67,0-2.51.53-2.51,1.58a1.48,1.48,0,0,0,.57,1.23,2.53,2.53,0,0,0,1.57.44,5.3,5.3,0,0,0,1.14-.1,3.29,3.29,0,0,0,.91-.32Z"/><path class="cls-2" d="M469.68,96.38l.4.94a10.16,10.16,0,0,1,4.46-1.11,4.54,4.54,0,0,1,3.07.91,4,4,0,0,1,1.31,2.11,11.91,11.91,0,0,1,.28,2.72v7.31H476v-7.72a3.32,3.32,0,0,0-.51-1.81,2,2,0,0,0-1.81-.8,9.65,9.65,0,0,0-3.11.7v9.63H467.4V96.38Z"/><path class="cls-2" d="M487.11,96.18c2.17,0,3.69.45,4.55,1.34a5.3,5.3,0,0,1,1.29,3.82v7.92H490.4l-.37-.91a5.87,5.87,0,0,1-3.76,1.21,4.85,4.85,0,0,1-3.31-1.09,3.84,3.84,0,0,1,.15-5.78,6.34,6.34,0,0,1,4-1.08h2.51a3.5,3.5,0,0,0-.6-2.38,3.28,3.28,0,0,0-2.38-.64,9.59,9.59,0,0,0-3.29.67l-.5-2.21A14.33,14.33,0,0,1,487.11,96.18Zm2.62,10.23v-2.75l-2.28.23c-1.68,0-2.52.53-2.52,1.58a1.48,1.48,0,0,0,.57,1.23,2.56,2.56,0,0,0,1.58.44,5.3,5.3,0,0,0,1.14-.1,3.34,3.34,0,0,0,.9-.32Z"/><path class="cls-2" d="M504.78,109v-.06a10.41,10.41,0,0,1-1.39.5,5.55,5.55,0,0,1-1.43.17,6.44,6.44,0,0,1-4.81-1.81,6.75,6.75,0,0,1-1.76-4.9,7,7,0,0,1,1-3.9,5.5,5.5,0,0,1,2.36-2.13,6.6,6.6,0,0,1,2.8-.64,8,8,0,0,1,3.89,1l.3-.84H508v13.18a7.29,7.29,0,0,1-1.61,4.71c-1.08,1.33-2.86,2-5.37,2a12.14,12.14,0,0,1-4.46-.84l-.5-.2.87-2.34.54.16a9.74,9.74,0,0,0,3.22.67,4.87,4.87,0,0,0,2.6-.57,2.81,2.81,0,0,0,1.2-1.57A8.94,8.94,0,0,0,504.78,109Zm-2.35-10.22q-3.72,0-3.72,4.29a3.91,3.91,0,0,0,6,3.39V99.2A5.8,5.8,0,0,0,502.43,98.73Z"/><path class="cls-2" d="M516.61,96.18A5.63,5.63,0,0,1,521.09,98a7.26,7.26,0,0,1,1.56,4.92v1.24H513.9a2.79,2.79,0,0,0,1.14,2.28,5.38,5.38,0,0,0,2.85.63,14.5,14.5,0,0,0,3.55-.4l.57,2.18a13.65,13.65,0,0,1-4.56.77,6.63,6.63,0,0,1-5.06-1.84,6.79,6.79,0,0,1-1.74-4.86,7.21,7.21,0,0,1,.84-3.54A6.07,6.07,0,0,1,513.68,97,5.54,5.54,0,0,1,516.61,96.18Zm.07,2.51a2.48,2.48,0,0,0-1.82.84,3.41,3.41,0,0,0-.89,2.35h5.49a3.27,3.27,0,0,0-.77-2.36A2.62,2.62,0,0,0,516.68,98.69Z"/><path class="cls-2" d="M527.48,96.38l.4.94a6.89,6.89,0,0,1,3.79-1.14,5.65,5.65,0,0,1,2.34.5l-.63,2.92-.14,0a5.39,5.39,0,0,0-2.75-.67,6.25,6.25,0,0,0-2.11.37v9.93H525.2V96.38Z"/></g><path class="cls-2" d="M145.45,56a3.3,3.3,0,0,0,3.3,3.3h17.56a3.3,3.3,0,0,0,0-6.59H148.75A3.29,3.29,0,0,0,145.45,56Z"/><path class="cls-2" d="M47.2,108.67V3.29a3.3,3.3,0,0,0-6.59,0V108.67a3.3,3.3,0,1,0,6.59,0Z"/><path class="cls-2" d="M19.58,85a3.3,3.3,0,1,0-4.66-4.66L4.32,90.91A3.3,3.3,0,0,0,9,95.57Z"/><path class="cls-2" d="M19.58,27,9,16.4a3.29,3.29,0,0,0-4.66,4.65l10.6,10.61A3.3,3.3,0,0,0,19.58,27Z"/><path class="cls-2" d="M75.47,3.29V108.67a3.3,3.3,0,1,0,6.59,0V3.29a3.3,3.3,0,0,0-6.59,0Z"/><path class="cls-2" d="M138,27a3.29,3.29,0,0,0,4.66,4.65l10.6-10.6a3.29,3.29,0,0,0-4.66-4.65Z"/><path class="cls-2" d="M137,82.64A3.28,3.28,0,0,0,138,85l10.6,10.6a3.3,3.3,0,0,0,4.66-4.66l-10.6-10.6A3.3,3.3,0,0,0,137,82.64Z"/><path class="cls-2" d="M110.33,3.29V108.67a3.29,3.29,0,1,0,6.58,0V3.29a3.29,3.29,0,1,0-6.58,0Z"/><path class="cls-2" d="M43.91,12.08h69.71a43.91,43.91,0,0,1,0,87.82H43.91a43.91,43.91,0,1,1,0-87.81Z"/><path class="cls-3" d="M144.36,56a30.77,30.77,0,0,0-30.74-30.73H43.91a30.74,30.74,0,1,0,0,61.47h69.71A30.77,30.77,0,0,0,144.36,56Z"/><circle class="cls-4" cx="111.21" cy="67.18" r="3.29"/><circle class="cls-4" cx="125.54" cy="50.87" r="3.29"/><circle class="cls-4" cx="35.4" cy="38.57" r="5.95"/><path class="cls-5" d="M22.65,43.82a2.93,2.93,0,0,1,5.41-.21,8.3,8.3,0,0,1,.08,6.73c-.41,1.24-.52,1.63-.15,2.42s.73,1,1.94,1.46a8.25,8.25,0,0,1,5.15,11.16c-.41,1.24-.52,1.63-.15,2.42s.73,1,1.94,1.45a8.35,8.35,0,0,1,5.07,4.44,2.93,2.93,0,0,1-5.32,2.45c-.36-.79-.73-1-1.94-1.45a8.25,8.25,0,0,1-5.15-11.17c.41-1.24.52-1.63.15-2.42s-.73-1-1.94-1.45a8.25,8.25,0,0,1-5.15-11.17c.41-1.24.52-1.63.15-2.42A3,3,0,0,1,22.65,43.82Z"/><path class="cls-6" d="M93.4,50.47S97.46,40,103.6,40s8.67,10.43,8.67,10.43"/><path class="cls-6" d="M47,50.47S51,40,57.14,40s8.68,10.43,8.68,10.43"/><path class="cls-6" d="M56.38,63.31a28.35,28.35,0,0,0,8.4,8c7.79,4.81,19.54,6.6,28.72.86a24.32,24.32,0,0,0,8.22-8.74"/></g></g></svg>